<?xml version="1.0" encoding="UTF-8"?>
<svg width="24px" height="24px" viewBox="0 0 24 24" version="1.1" xmlns="http://www.w3.org/2000/svg" xmlns:xlink="http://www.w3.org/1999/xlink">
    <title>tags/selected备份</title>
    <g id="权限管理_20201210" stroke="none" stroke-width="1" fill="none" fill-rule="evenodd">
        <g id="成员管理-添加成员" transform="translate(-631.000000, -878.000000)">
            <g id="编组-4" transform="translate(200.000000, 76.000000)">
                <g id="编组-22" transform="translate(20.000000, 657.000000)">
                    <g id="编组-19" transform="translate(10.000000, 144.000000)">
                        <g id="编组-17" transform="translate(122.000000, 0.000000)">
                            <g id="tags/selected备份" transform="translate(279.000000, 1.000000)">
                                <path d="M0,0 L22,0 C23.1045695,-2.02906125e-16 24,0.8954305 24,2 L24,24 L24,24 L0,0 Z" id="Rectangle-5" fill="#105CFB"></path>
                                <path d="M19.1671149,4.15619122 C19.3576489,3.94793626 19.6665655,3.94793626 19.8570995,4.15619122 C20.0476335,4.36444619 20.0476335,4.7020942 19.8570995,4.91034917 L15.3434422,9.84380775 C15.160033,10.0442753 14.8651774,10.0528452 14.67228,9.86331496 L12.1617272,7.39658567 C11.9613364,7.19969286 11.9449188,6.86252202 12.1250575,6.64349352 C12.3051962,6.42446502 12.6136762,6.4065205 12.814067,6.60341331 L14.9805773,8.73210565 L19.1671149,4.15619122 Z" id="Path-2" fill="#FFFFFF" fill-rule="nonzero"></path>
                            </g>
                        </g>
                    </g>
                </g>
            </g>
        </g>
    </g>
</svg>